<svg xmlns="http://www.w3.org/2000/svg" width="17.324" height="17.326" viewBox="0 0 17.324 17.326" className="icon_lnb_advise_keyword" fill="#8b949f" stroke="#8b949f">
  <g id="그룹_9085" data-name="그룹 9085" transform="translate(0.15 0.15)" stroke-width="0.3px">
    <path id="Fill_55" data-name="Fill 55"   d="M12.077,14.3H2.22A2.223,2.223,0,0,1,0,12.078V2.22A2.222,2.222,0,0,1,2.22,0H7.148a.606.606,0,1,1,0,1.211H2.22A1.011,1.011,0,0,0,1.211,2.22v9.857A1.011,1.011,0,0,0,2.22,13.087h9.857a1.011,1.011,0,0,0,1.009-1.009V7.149a.606.606,0,0,1,1.211,0v4.929a2.223,2.223,0,0,1-2.22,2.22" transform="translate(0 2.727)"/>
    <path id="Fill_56" data-name="Fill 56"   d="M1.009,12.4a1.009,1.009,0,0,1-1-1.1L.2,9.148a1.418,1.418,0,0,1,.409-.872L8.47.414a1.414,1.414,0,0,1,2,0l1.514,1.515a1.413,1.413,0,0,1,0,2L4.12,11.79a1.42,1.42,0,0,1-.872.408l-2.147.2C1.075,12.4,1.046,12.4,1.009,12.4ZM9.47,1.193a.21.21,0,0,0-.143.077L1.464,9.133a.2.2,0,0,0-.058.124l-.174,1.908,1.906-.174a.2.2,0,0,0,.127-.058l7.861-7.862a.2.2,0,0,0,0-.286L9.613,1.27A.21.21,0,0,0,9.47,1.193Z" transform="translate(4.628)"/>
    <path id="Fill_57" data-name="Fill 57"   d="M3.263,3.867a.6.6,0,0,1-.428-.178L.177,1.033A.605.605,0,0,1,1.033.177L3.691,2.834a.606.606,0,0,1-.428,1.034" transform="translate(11.07 2.088)"/>
  </g>
</svg>
