<svg xmlns="http://www.w3.org/2000/svg" width="15.498" height="18.875" viewBox="0 0 15.498 18.875" className="icon_lnb_kms" fill="#8b949f" stroke="#8b949f">
  <g id="Layer_3" data-name="Layer 3" transform="translate(0.15 0.162)" stroke-width="0.3px">
    <path id="패스_6941" data-name="패스 6941" class="cls-1" d="M13.245,18.564H1.943A1.943,1.943,0,0,1,0,16.621V1.943A1.943,1.943,0,0,1,1.943,0H9.5a.656.656,0,0,1,.648.648A.656.656,0,0,1,9.5,1.3H1.943a.656.656,0,0,0-.648.648V16.621a.656.656,0,0,0,.648.648h11.3a.656.656,0,0,0,.648-.648V5.664a.648.648,0,0,1,1.3,0V16.621A1.943,1.943,0,0,1,13.245,18.564Z" transform="translate(0 0)"/>
    <path id="패스_6942" data-name="패스 6942" class="cls-1" d="M15.94,6.312H11.761A1.511,1.511,0,0,1,10.25,4.8V.647A.648.648,0,0,1,11.355.19L16.4,5.18a.648.648,0,0,1,.138.708.639.639,0,0,1-.6.423Zm-4.369-4.1V4.8a.216.216,0,0,0,.216.216h2.59Z" transform="translate(-1.4 0.001)"/>
    <path id="패스_6943" data-name="패스 6943" class="cls-1" d="M11.311,12.245H5.268a.648.648,0,1,1,0-1.3h6.044a.648.648,0,0,1,0,1.3Z" transform="translate(-0.631 -1.495)"/>
    <path id="패스_6944" data-name="패스 6944" class="cls-1" d="M11.251,16.265H5.208a.648.648,0,1,1,0-1.3h6.044a.648.648,0,0,1,0,1.3Z" transform="translate(-0.623 -2.044)"/>
  </g>
</svg>
