<svg xmlns="http://www.w3.org/2000/svg" width="12.16" height="16.779" viewBox="0 0 12.16 16.779" className="icon_lnb_customer" fill="#8b949f" stroke="#8b949f">
  <g id="Layer_2" data-name="Layer 2" transform="translate(0.15 0.15)" stroke-width="0.3px">
    <g id="Layer_44" data-name="Layer 44" transform="translate(0)">
      <path id="패스_6911" data-name="패스 6911" class="cls-1" d="M6.235,8.65A4.325,4.325,0,1,1,10.56,4.325,4.325,4.325,0,0,1,6.235,8.65Zm0-7.429a3.1,3.1,0,1,0,3.079,3.1,3.1,3.1,0,0,0-3.079-3.1Z" transform="translate(-0.354)"/>
      <path id="패스_6912" data-name="패스 6912" class="cls-1" d="M9.62,18.169H2.24A2.24,2.24,0,0,1,0,15.93v-.88a5.93,5.93,0,0,1,11.86,0v.88A2.24,2.24,0,0,1,9.62,18.169ZM5.93,10.342A4.708,4.708,0,0,0,1.222,15.05v.88A1.018,1.018,0,0,0,2.24,16.948H9.62a1.018,1.018,0,0,0,1.018-1.018v-.88A4.708,4.708,0,0,0,5.93,10.342Z" transform="translate(0 -1.691)"/>
    </g>
  </g>
</svg>
