<svg xmlns="http://www.w3.org/2000/svg" xmlns:xlink="http://www.w3.org/1999/xlink" width="22" height="22" viewBox="0 0 22 22" className="icon_lnb_home" fill="#8b949f" stroke="#8b949f">
  <g id="마스크_그룹_2" data-name="마스크 그룹 2" class="cls-2" stroke-width="0.3px">
    <g id="home" transform="translate(-0.523 -0.178)">
      <path id="패스_7150" data-name="패스 7150" class="cls-3" d="M19.811,8.707,11.943,2.15a.656.656,0,0,0-.839,0L3.236,8.707a.656.656,0,0,0-.236.5V19.7a.656.656,0,0,0,.656.656H8.9a.656.656,0,0,0,.656-.656V14.457a1.967,1.967,0,1,1,3.934,0V19.7a.656.656,0,0,0,.656.656h5.245a.656.656,0,0,0,.656-.656V9.212A.656.656,0,0,0,19.811,8.707Zm-1.075,10.34H14.8v-4.59a3.278,3.278,0,1,0-6.556,0v4.59H4.311V9.52l7.212-6.012L18.736,9.52Z"/>
    </g>
  </g>
</svg>
