<svg xmlns="http://www.w3.org/2000/svg" xmlns:xlink="http://www.w3.org/1999/xlink" width="22" height="22" viewBox="0 0 22 22" className="icon_lnb_chatbot_advise" fill="#8b949f" stroke="#8b949f">
  <g id="마스크_그룹_2" data-name="마스크 그룹 2" class="cls-2" stroke-width="0.3px">
    <path id="chatbot" class="cls-3" d="M6.9,3A2.351,2.351,0,0,0,4.554,5.341V7.257H3.49A1.5,1.5,0,0,0,2,8.747v2.128a1.5,1.5,0,0,0,1.49,1.49H4.554v1.916A2.351,2.351,0,0,0,6.9,16.622h8.939a2.351,2.351,0,0,0,2.341-2.341V12.365h1.277v4.47a1.906,1.906,0,0,1-1.916,1.916H13.774a1.491,1.491,0,1,0,0,1.277h3.764a3.2,3.2,0,0,0,3.193-3.193V8.747a1.5,1.5,0,0,0-1.49-1.49H18.176V5.341A2.351,2.351,0,0,0,15.835,3Zm0,1.277h8.939A1.055,1.055,0,0,1,16.9,5.341v8.939a1.055,1.055,0,0,1-1.064,1.064H6.9a1.055,1.055,0,0,1-1.064-1.064V5.341A1.055,1.055,0,0,1,6.9,4.277Zm1.49,3.405a.851.851,0,1,0,.851.851A.851.851,0,0,0,8.385,7.683Zm5.96,0a.851.851,0,1,0,.851.851A.851.851,0,0,0,14.345,7.683ZM3.49,8.534H4.554v2.554H3.49a.2.2,0,0,1-.213-.213V8.747A.2.2,0,0,1,3.49,8.534Zm14.686,0H19.24a.2.2,0,0,1,.213.213v2.341H18.176ZM14.126,11.5a.639.639,0,0,0-.446.2,1.673,1.673,0,0,1-.486.3,4.242,4.242,0,0,1-1.83.365A4.242,4.242,0,0,1,9.535,12a1.673,1.673,0,0,1-.486-.3.638.638,0,1,0-.9.9,3.418,3.418,0,0,0,.845.552,5.555,5.555,0,0,0,2.374.486,5.555,5.555,0,0,0,2.374-.486,3.418,3.418,0,0,0,.845-.552.639.639,0,0,0-.457-1.1Z" transform="translate(-0.5 -0.939)"/>
  </g>
</svg>
