<svg xmlns="http://www.w3.org/2000/svg" xmlns:xlink="http://www.w3.org/1999/xlink" width="17.324" height="17.705" viewBox="0 0 17.324 17.705" className="icon_lnb_chat_advise" fill="#8b949f" stroke="#8b949f">
  <g id="그룹_9084" data-name="그룹 9084" class="cls-2" stroke-width="0.3px">
    <path id="패스_7164" data-name="패스 7164" class="cls-1" d="M14.264,6.013V5.837A5.77,5.77,0,0,0,8.829,0a5.607,5.607,0,0,0-5.781,5.6v.408a3.718,3.718,0,0,0,.674,7.375h0a.681.681,0,0,0,.68-.677V5.605A4.228,4.228,0,0,1,7.236,1.581a4.323,4.323,0,0,1,3.918.582,4.271,4.271,0,0,1,1.754,3.443v4.428a.1.1,0,0,0,.013.055l0,.574a.266.266,0,0,0-.011.064v1.406A4.245,4.245,0,0,1,9.12,16.362a.661.661,0,0,0-.578.666.675.675,0,0,0,.227.5.688.688,0,0,0,.459.174.718.718,0,0,0,.08,0,5.587,5.587,0,0,0,4.823-4.367,3.707,3.707,0,0,0,.133-7.321M3.006,11.888a.075.075,0,0,1-.073.012,2.372,2.372,0,0,1,0-4.472.071.071,0,0,1,.024,0,.089.089,0,0,1,.049.017.1.1,0,0,1,.042.081v4.285a.1.1,0,0,1-.043.081m11.385.012a.08.08,0,0,1-.073-.012.1.1,0,0,1-.043-.081V7.521a.1.1,0,0,1,.043-.081.082.082,0,0,1,.048-.016.084.084,0,0,1,.026,0,2.373,2.373,0,0,1,0,4.472" transform="translate(0 0)"/>
  </g>
</svg>
