<svg xmlns="http://www.w3.org/2000/svg" xmlns:xlink="http://www.w3.org/1999/xlink" width="22" height="22" viewBox="0 0 22 22" className="icon_lnb_dashboard">
  <defs>
    <style>
      .cls-1 {
        fill: none;
        stroke: #646f7c;
      }

      .cls-2 {
        clip-path: url(#clip-path);
      }

      .cls-3 {
        fill: #8b949f;
        stroke: #8b949f;
        stroke-width: 0.3px;
      }
    </style>
    <clipPath id="clip-path">
      <rect id="사각형_4123" data-name="사각형 4123" class="cls-1" width="22" height="22"/>
    </clipPath>
  </defs>
  <g id="마스크_그룹_8387" data-name="마스크 그룹 8387" class="cls-2">
    <g id="그룹_9081" data-name="그룹 9081" transform="translate(2.806 1.669)">
      <path id="Fill_66" data-name="Fill 66" class="cls-3" d="M5.2,18.662H1.953A1.955,1.955,0,0,1,0,16.709V1.953A1.955,1.955,0,0,1,1.953,0H5.2A1.955,1.955,0,0,1,7.155,1.953V16.709A1.955,1.955,0,0,1,5.2,18.662ZM1.953,1.3a.651.651,0,0,0-.651.651V16.709a.651.651,0,0,0,.651.651H5.2a.651.651,0,0,0,.651-.651V1.953A.651.651,0,0,0,5.2,1.3Z" transform="translate(9.423)"/>
      <path id="Fill_67" data-name="Fill 67" class="cls-3" d="M5.2,9.982H1.953A1.955,1.955,0,0,1,0,8.029V1.953A1.955,1.955,0,0,1,1.953,0H5.2A1.955,1.955,0,0,1,7.154,1.953V8.029A1.955,1.955,0,0,1,5.2,9.982ZM1.953,1.3a.651.651,0,0,0-.651.651V8.029a.651.651,0,0,0,.651.651H5.2a.651.651,0,0,0,.651-.651V1.953A.651.651,0,0,0,5.2,1.3Z" transform="translate(0 8.68)"/>
    </g>
  </g>
</svg>
