<svg xmlns="http://www.w3.org/2000/svg" width="12.714" height="13.569" viewBox="0 0 12.714 13.569" fill="#28323c" stroke="#28323c" className="icon_detail_search">
  <path id="Fill_125" data-name="Fill 125" class="cls-1" d="M5.247,13.269a1.211,1.211,0,0,1-.575-.148,1.128,1.128,0,0,1-.6-1V7.932a.8.8,0,0,0-.131-.439L.184,1.76A1.12,1.12,0,0,1,.146.593,1.184,1.184,0,0,1,1.179,0H11.206a1.185,1.185,0,0,1,1.032.593A1.118,1.118,0,0,1,12.2,1.76L8.448,7.493a.8.8,0,0,0-.132.439v3.057a1.131,1.131,0,0,1-.56.976L5.863,13.1A1.2,1.2,0,0,1,5.247,13.269ZM1.179.982a.163.163,0,0,0-.147.084.155.155,0,0,0,.005.167L4.788,6.966a1.749,1.749,0,0,1,.29.966v4.189a.159.159,0,0,0,.086.143.179.179,0,0,0,.084.022.165.165,0,0,0,.086-.025l1.894-1.132a.162.162,0,0,0,.079-.14V7.932A1.762,1.762,0,0,1,7.6,6.965l3.752-5.732a.155.155,0,0,0,.005-.167.163.163,0,0,0-.147-.084Z" transform="translate(0.165 0.15)" stroke-width="0.3px" />
</svg>
