<svg xmlns="http://www.w3.org/2000/svg" width="15.967" height="14.226" viewBox="0 0 15.967 14.226" fill="#28323c" stroke="#28323c" className="icon_sorting">
  <g id="Setting" transform="translate(-5.85 -7.85)">
    <path id="패스_7124" data-name="패스 7124" class="cls-1" d="M6.435,10.176h1.8a1.732,1.732,0,0,0,3.358,0h9.636a.435.435,0,1,0,0-.87H11.6a1.732,1.732,0,0,0-3.358,0h-1.8a.435.435,0,0,0,0,.87ZM9.917,8.871a.87.87,0,1,1-.87.87A.87.87,0,0,1,9.917,8.871Zm11.315,5.658H18.559a1.732,1.732,0,0,0-3.358,0H6.435a.435.435,0,0,0,0,.87H15.2a1.732,1.732,0,0,0,3.358,0h2.673a.435.435,0,1,0,0-.87ZM16.88,15.834a.87.87,0,1,1,.87-.87A.87.87,0,0,1,16.88,15.834Zm4.352,3.917H12.9a1.732,1.732,0,0,0-3.358,0H6.435a.435.435,0,0,0,0,.87H9.543a1.732,1.732,0,0,0,3.358,0h8.331a.435.435,0,1,0,0-.87ZM11.222,21.056a.87.87,0,1,1,.87-.87A.87.87,0,0,1,11.222,21.056Z" stroke-width="0.3px"/>
  </g>
</svg>
