<svg xmlns="http://www.w3.org/2000/svg" width="13.888" height="12.285" viewBox="0 0 13.888 12.285" className="icon_caution" fill="#f6c71d">
  <path id="error" d="M8.944,3a1.068,1.068,0,0,0-.986.656l-5.8,10h0a1.067,1.067,0,0,0,.908,1.63l.075,0,0,0h11.6l0,0,.075,0a1.067,1.067,0,0,0,.908-1.631l-.008-.015h0L9.93,3.656A1.068,1.068,0,0,0,8.944,3ZM8.3,7.465h1.3l-.107,3.457H8.4Zm.65,4.514a.639.639,0,1,1,0,1.271c-.442,0-.707-.235-.707-.631A.62.62,0,0,1,8.946,11.979Z" transform="translate(-2 -3)"/>
</svg>
