<svg id="icon_cross_small" data-name="icon_cross_small" xmlns="http://www.w3.org/2000/svg" width="6.5" height="6.5" viewBox="0 0 7 7" fill="#ffffff" className="icon_cross_small">
  <path id="Fill_157" data-name="Fill 157" class="cls-1" d="M.748,6.5A.748.748,0,0,1,.219,5.223l5-5A.749.749,0,0,1,6.281,1.278l-5,5a.743.743,0,0,1-.529.22" transform="translate(0.5 0)"/>
  <path id="Fill_158" data-name="Fill 158" class="cls-1" d="M5.752,6.5a.743.743,0,0,1-.529-.22l-5-5A.749.749,0,0,1,1.278.219l5,5A.748.748,0,0,1,5.752,6.5" transform="translate(0.5 0)"/>
</svg>
