<svg id="그룹_5636" data-name="그룹 5636" xmlns="http://www.w3.org/2000/svg" xmlns:xlink="http://www.w3.org/1999/xlink" width="42.2" height="7.564" viewBox="0 0 42.2 7.564" className="icon_cafe24">
  <g id="그룹_5632" data-name="그룹 5632" transform="translate(0 0)">
    <path id="패스_5725" data-name="패스 5725" fill="#0c243b" d="M59.56,8.449H58.074l-.037-.7a3.068,3.068,0,0,1-2.792.711A3.341,3.341,0,0,1,53.17,7.19a3.668,3.668,0,0,1,.182-4.742,3.44,3.44,0,0,1,4.678-.372c.014-.207.027-.386.042-.6H59.56ZM55.99,7.1a2.177,2.177,0,0,0,2.159-2.2,2.172,2.172,0,1,0-4.343.03A2.167,2.167,0,0,0,55.99,7.1" transform="translate(-45.726 -1.152)"/>
    <path id="패스_5726" data-name="패스 5726" fill="#0c243b" d="M176.814,5.586h-5.436c.18,1.328,1.96,1.741,3.478.81l1.02.9a3.533,3.533,0,0,1-4.471.562,3.617,3.617,0,0,1,3.11-6.478,3.584,3.584,0,0,1,2.3,4.206m-5.585-1.3h4.162a2.088,2.088,0,0,0-2.01-1.678,2.145,2.145,0,0,0-2.152,1.678" transform="translate(-148.134 -1.024)"/>
    <path id="패스_5727" data-name="패스 5727" fill="#146af0" d="M233.279,3.669l-.982-.89a5.523,5.523,0,0,1,.585-.5,3.786,3.786,0,0,1,3.837-.263,2.031,2.031,0,0,1,.528,3.43,6.591,6.591,0,0,1-1.726.655c-.37.128-.755.214-1.119.354a.944.944,0,0,0-.405.326,1.736,1.736,0,0,0-.161.476,1.88,1.88,0,0,0,.415.1c1.128.008,2.256.012,3.383,0,.309,0,.428.082.424.415-.01.883.006.883-.887.883-1.467,0-2.935-.01-4.4.007-.352,0-.5-.093-.462-.46a10.9,10.9,0,0,1,.058-1.216,2.278,2.278,0,0,1,1.46-1.638,14.721,14.721,0,0,1,1.628-.491c.078-.023.16-.03.238-.051.563-.153.831-.428.837-.857a1.025,1.025,0,0,0-.88-.933,2.509,2.509,0,0,0-2.37.652" transform="translate(-202.757 -1.41)"/>
    <path id="패스_5728" data-name="패스 5728" fill="#146af0" d="M284.463,4.5c0,.53.017,1.061-.005,1.59-.015.346.122.439.451.435.865-.009.89.023.781.879a.434.434,0,0,1-.288.272c-.285.061-.67-.036-.847.12-.151.133-.084.53-.086.811,0,.22-.073.33-.3.322-.326-.012-.735.1-.951-.054-.175-.127-.143-.572-.158-.879-.012-.269-.15-.309-.367-.308-.856,0-1.712,0-2.568,0a.944.944,0,0,1-.986-.5A1.075,1.075,0,0,1,279.271,6q1.524-1.833,3.075-3.643a1.392,1.392,0,0,1,1.425-.381.867.867,0,0,1,.689.892c.007.543,0,1.087,0,1.63m-4,1.907.072.109c.746,0,1.492,0,2.237,0,.257,0,.276-.15.276-.345,0-.8,0-1.6,0-2.4a1.815,1.815,0,0,0-.077-.324l-2.5,2.962" transform="translate(-243.534 -1.682)"/>
    <path id="패스_5729" data-name="패스 5729" fill="#0c243b" d="M5.448,5.4l.97,1.03a3.685,3.685,0,0,1-5.07.251,3.776,3.776,0,1,1,5.1-5.556l-1.073.954c-1.5-.839-2.591-.736-3.412.312a2.283,2.283,0,0,0,.166,2.981c.867.9,2.023.917,3.316.027" transform="translate(0 0)"/>
    <path id="패스_5730" data-name="패스 5730" fill="#0c243b" d="M126.013,1.992V3.408h-.551c-.91,0-1.82,0-2.73,0-.588,0-.81.217-.839.8-.012.243,0,.487,0,.78.174.011.329.03.484.03,1.005,0,2.01.011,3.015,0,.3,0,.42.079.392.39-.025.268-.005.54-.005.863H121.9V9.011h-1.5c-.009-.159-.023-.3-.023-.447q0-2.241,0-4.483c0-1.341.573-2.008,1.914-2.076,1.229-.063,2.464-.013,3.72-.013" transform="translate(-105.07 -1.722)"/>
  </g>
</svg>
