<svg xmlns="http://www.w3.org/2000/svg" width="8.799" height="15.484" viewBox="0 0 8.799 15.484" fill="#fff" className="icon_arrow_down_long">
  <g id="그룹_9845" data-name="그룹 9845" transform="translate(-1329.15 -859.863)">
    <path id="패스_6997" data-name="패스 6997" d="M9.64,15.484a.822.822,0,0,1-.75-.86V.86A.811.811,0,0,1,9.64,0a.811.811,0,0,1,.75.86V14.624a.811.811,0,0,1-.75.86Z" transform="translate(1323.879 859.863)"/>
    <path id="패스_6998" data-name="패스 6998" d="M10.2,13.5a.953.953,0,0,1-.608-.22L6.025,10.15a.681.681,0,0,1,.054-1,.955.955,0,0,1,1.15-.057l2.971,2.6,2.982-2.6a.953.953,0,0,1,1.195.018A.683.683,0,0,1,14.4,10.15l-3.59,3.13A.928.928,0,0,1,10.2,13.5Z" transform="translate(1323.32 861.848)"/>
  </g>
</svg>
