<svg xmlns="http://www.w3.org/2000/svg" width="11.315" height="14.143" viewBox="0 0 11.315 14.143" className="icon_trash_can" fill="#c3c6cc">
  <path id="trash" d="M8.243,2l-.707.707H4.707A.668.668,0,0,0,4,3.414a.668.668,0,0,0,.707.707h9.9a.668.668,0,0,0,.707-.707.668.668,0,0,0-.707-.707H11.779L11.072,2ZM4.707,5.536v9.193a1.418,1.418,0,0,0,1.414,1.414h7.072a1.418,1.418,0,0,0,1.414-1.414V5.536ZM7.536,6.95a.668.668,0,0,1,.707.707v6.364a.668.668,0,0,1-.707.707.668.668,0,0,1-.707-.707V7.657A.668.668,0,0,1,7.536,6.95Zm4.243,0a.668.668,0,0,1,.707.707v6.364a.707.707,0,1,1-1.414,0V7.657A.668.668,0,0,1,11.779,6.95Z" transform="translate(-4 -2)"/>
</svg>
