<svg id="thumbtack-solid" xmlns="http://www.w3.org/2000/svg" width="9.304" height="12.411" viewBox="0 0 9.304 12.411" fill="#c3c6cc" className="icon_bookmark">
  <path id="thumbtack-solid-2" data-name="thumbtack-solid" class="cls-1" d="M.775.776A.776.776,0,0,1,1.551,0H7.757a.776.776,0,0,1,0,1.551H7.041l.276,3.592a4.082,4.082,0,0,1,1.927,2.3l.024.073a.787.787,0,0,1-.128.7.709.709,0,0,1-.608.322H.775A.776.776,0,0,1,.039,7.512l.024-.073a4.074,4.074,0,0,1,1.927-2.3l.276-3.592H1.551A.776.776,0,0,1,.775.776ZM5.429,9.308v2.327a.776.776,0,1,1-1.551,0V9.308Z" transform="translate(0)"/>
</svg>
