<svg xmlns="http://www.w3.org/2000/svg" width="20.866" height="20.865" viewBox="0 0 20.866 20.865" fill="#fff" className="icon_previous_chat_advise_time">
  <g id="그룹_9703" data-name="그룹 9703" transform="translate(-379.316 -167.508)">
    <path id="Fill_70" data-name="Fill 70"   d="M10.433,20.866A10.433,10.433,0,1,1,20.866,10.433,10.445,10.445,0,0,1,10.433,20.866Zm0-19.365a8.933,8.933,0,1,0,8.933,8.933A8.943,8.943,0,0,0,10.433,1.5Z" transform="translate(379.316 167.507)"/>
    <path id="Fill_71" data-name="Fill 71"   d="M4.123,9.266a.744.744,0,0,1-.53-.22L.22,5.673A.749.749,0,0,1,0,5.143V.75a.75.75,0,0,1,1.5,0V4.832L4.653,7.986a.75.75,0,0,1-.53,1.28" transform="translate(388.999 172.788)"/>
  </g>
</svg>
