<svg id="구성_요소_84_233" data-name="구성 요소 84 – 233" xmlns="http://www.w3.org/2000/svg" width="25" height="25" viewBox="0 0 25 25" fill="#646f7c" className="icon_text_underline">
  <rect id="사각형_3974" data-name="사각형 3974" width="25" height="25" rx="5" opacity="0"/>
  <path id="패스_7110" data-name="패스 7110" d="M25.6,16a.691.691,0,0,0-.691.691v2.762a2.762,2.762,0,0,1-5.524,0V16.691a.691.691,0,1,0-1.381,0v2.762a4.143,4.143,0,0,0,8.286,0V16.691A.691.691,0,0,0,25.6,16Z" transform="translate(-9.715 -9.094)"/>
  <path id="패스_7111" data-name="패스 7111" d="M25.6,30H18.691a.691.691,0,0,0,0,1.381H25.6A.691.691,0,1,0,25.6,30Z" transform="translate(-9.715 -13.428)"/>
</svg>
