<svg xmlns="http://www.w3.org/2000/svg" width="17.073" height="17.073" viewBox="0 0 17.073 17.073" className="icon_toast_warning" fill="#d32f2f" stroke="#d32f2f">
  <path id="info" d="M12.387,4a8.387,8.387,0,1,0,8.387,8.387A8.4,8.4,0,0,0,12.387,4Zm0,1.258a7.129,7.129,0,1,1-7.129,7.129A7.119,7.119,0,0,1,12.387,5.258Zm0,2.935a.839.839,0,1,0,.839.839A.839.839,0,0,0,12.387,8.193Zm-.01,2.926a.629.629,0,0,0-.619.638V16.37a.629.629,0,1,0,1.258,0V11.758a.629.629,0,0,0-.639-.638Z" transform="translate(20.923 20.923) rotate(180)" stroke-width="0.3px"/>
</svg>
