<svg id="그룹_6986" data-name="그룹 6986" xmlns="http://www.w3.org/2000/svg" width="6.514" height="6.514" viewBox="0 0 6.514 6.514" className="icon_cross_tiny">
  <path id="Fill_157" data-name="Fill 157" d="M.75,6.514a.75.75,0,0,1-.53-1.28L5.233.22A.75.75,0,0,1,6.294,1.281L1.28,6.294a.744.744,0,0,1-.53.22" transform="translate(0 0)" fill="#fff"/>
  <path id="Fill_158" data-name="Fill 158" d="M5.764,6.514a.744.744,0,0,1-.53-.22L.22,1.281A.75.75,0,0,1,1.281.22L6.294,5.234a.75.75,0,0,1-.53,1.28" transform="translate(0 0)" fill="#fff"/>
</svg>
