<svg xmlns="http://www.w3.org/2000/svg" width="16.02" height="16.02" viewBox="0 0 16.02 16.02" className="icon_exel_template" fill="#28323c">
  <g id="그룹_9682" data-name="그룹 9682" transform="translate(0 0)">
    <path id="패스_6893" data-name="패스 6893" d="M0,0H16.02V16.02H0Z" transform="translate(0 0)" fill="none" />
    <path id="패스_6894" data-name="패스 6894" d="M2.535,2.239,10.363,1.08a.3.3,0,0,1,.248.076.328.328,0,0,1,.107.244V14.855a.328.328,0,0,1-.107.244.3.3,0,0,1-.248.076l-7.83-1.159A.638.638,0,0,1,2,13.377V2.878a.638.638,0,0,1,.535-.639Zm.711,1.2v9.379l6.228.922V2.516Zm8.1,9.208H13.21V3.609H11.342V2.318h2.491a.634.634,0,0,1,.623.645V13.291a.634.634,0,0,1-.623.645H11.342ZM7.107,8.127l1.744,2.582H7.356l-1-1.476-1,1.476H3.868L5.612,8.127,3.868,5.546H5.363l1,1.476,1-1.476H8.851Z" transform="translate(-0.218 -0.117)"/>
  </g>
</svg>
