<svg id="구성_요소_86_233" data-name="구성 요소 86 – 233" xmlns="http://www.w3.org/2000/svg" width="25" height="25" viewBox="0 0 25 25" fill="#646f7c" className="icon_text_background" >
  <g id="그룹_8680" data-name="그룹 8680">
    <rect id="사각형_4043" data-name="사각형 4043" width="25" height="25" rx="5" opacity="0"/>
    <g id="그룹_8628" data-name="그룹 8628" transform="translate(-879.5 -768.352)">
      <path id="text-color" d="M13.889,5a.551.551,0,0,0-.491.336L10.37,12.5a.551.551,0,1,0,1.014.429l.673-1.591h3.7l.673,1.591a.551.551,0,1,0,1.014-.429L14.412,5.337A.551.551,0,0,0,13.889,5Zm.016,1.963,1.383,3.267H12.523Z" transform="translate(878.027 771.249)"/>
      <path id="printed-ocr" d="M4.155,3A1.164,1.164,0,0,0,3,4.155V6.466a.578.578,0,1,0,1.155,0V4.155H6.466A.578.578,0,1,0,6.466,3ZM13.4,3a.578.578,0,1,0,0,1.155h2.311V6.466a.578.578,0,1,0,1.155,0V4.155A1.164,1.164,0,0,0,15.708,3ZM3.569,12.812A.578.578,0,0,0,3,13.4v2.311a1.164,1.164,0,0,0,1.155,1.155H6.466a.578.578,0,1,0,0-1.155H4.155V13.4a.578.578,0,0,0-.587-.586Zm12.708,0a.578.578,0,0,0-.569.586v2.311H13.4a.578.578,0,1,0,0,1.155h2.311a1.164,1.164,0,0,0,1.155-1.155V13.4a.578.578,0,0,0-.587-.586Z" transform="translate(882 770.921)"/>
    </g>
  </g>
</svg>
