<svg xmlns="http://www.w3.org/2000/svg" width="33" height="33" viewBox="0 0 33 33" className="icon_file_extension_xlsx">
  <g id="Layer_x0020_1" transform="translate(-0.102 -0.101)">
    <g id="_187846080" transform="translate(0.478 0.478)">
      <rect id="_297979984" width="33" height="33" transform="translate(-0.378 -0.378)" fill="none"/>
      <rect id="_297979864" width="23" height="23" transform="translate(4.622 4.622)" fill="none"/>
      <path id="_297979696" d="M1303.19,256l5.241,5.248h-4.3a.94.94,0,0,1-.937-.937V256Z" transform="translate(-1282.617 -252.12)" fill-rule="evenodd" fill="#89c895"/>
      <path id="_297979528" d="M415.491,256h13.526v4.285a.966.966,0,0,0,.963.963h4.278v12.991a.64.64,0,0,1-.638.638H415.491a.64.64,0,0,1-.638-.638v-17.6a.64.64,0,0,1,.638-.638Z" transform="translate(-408.442 -252.121)" fill="#c8edc7"/>
      <path id="_297979216" d="M257.3,1218.19h21.893a1.306,1.306,0,0,1,1.3,1.3v6.287a1.306,1.306,0,0,1-1.3,1.3H257.3a1.306,1.306,0,0,1-1.3-1.3v-6.287a1.306,1.306,0,0,1,1.3-1.3Z" transform="translate(-252.121 -1198.972)" fill-rule="evenodd" fill="#0f713a"/>
      <path id="_187846152" d="M371.417,1317.863l1.95-2.977-1.767-2.729h1.346l1.145,1.833,1.12-1.833h1.335l-1.775,2.771,1.95,2.935h-1.39l-1.265-1.973-1.269,1.973h-1.382Zm5.928,0v-5.66H378.5v4.7h2.864v.962Zm4.546-1.856,1.121-.11a1.358,1.358,0,0,0,.411.83,1.244,1.244,0,0,0,.834.264,1.274,1.274,0,0,0,.838-.237.7.7,0,0,0,.283-.55.514.514,0,0,0-.12-.344.923.923,0,0,0-.415-.247c-.134-.048-.442-.13-.922-.25a3.115,3.115,0,0,1-1.3-.565,1.5,1.5,0,0,1-.279-1.964,1.555,1.555,0,0,1,.712-.578,2.87,2.87,0,0,1,1.123-.2,2.413,2.413,0,0,1,1.618.47,1.668,1.668,0,0,1,.57,1.258l-1.152.05a.975.975,0,0,0-.318-.632,1.158,1.158,0,0,0-.729-.193,1.312,1.312,0,0,0-.786.206.414.414,0,0,0-.183.354.437.437,0,0,0,.171.347,3,3,0,0,0,1.059.381,5.641,5.641,0,0,1,1.244.411,1.615,1.615,0,0,1,.631.581,1.7,1.7,0,0,1,.227.909,1.673,1.673,0,0,1-.272.918,1.63,1.63,0,0,1-.771.636,3.224,3.224,0,0,1-1.242.208,2.472,2.472,0,0,1-1.662-.5A2.173,2.173,0,0,1,381.891,1316.007Zm5.029,1.856,1.95-2.977-1.767-2.729h1.346l1.145,1.833,1.12-1.833h1.335l-1.775,2.771,1.95,2.935h-1.39l-1.265-1.973-1.269,1.973Z" transform="translate(-365.699 -1291.345)" fill-rule="evenodd" fill="#fff"/>
    </g>
  </g>
</svg>
