<svg xmlns="http://www.w3.org/2000/svg" xmlns:xlink="http://www.w3.org/1999/xlink" width="148" height="148" viewBox="0 0 148 148" className="icon_file_unavailable_bg_white" fill="#e7e9ec" stroke="#e7e9ec">
  <g id="마스크_그룹_7826" data-name="마스크 그룹 7826" class="cls-2" transform="translate(-886 -483)">
    <g id="그룹_7969" data-name="그룹 7969">
      <g id="Layer_2" data-name="Layer 2" transform="translate(905 500)">
        <g id="Layer_42" data-name="Layer 42" transform="translate(0)">
          <path id="패스_6933" data-name="패스 6933" class="cls-3" d="M94.961,109H13.868A13.879,13.879,0,0,1,0,95.11V13.89A13.879,13.879,0,0,1,13.868,0H94.961A13.879,13.879,0,0,1,108.83,13.89V95.11A13.879,13.879,0,0,1,94.961,109ZM13.868,7.576a6.309,6.309,0,0,0-6.3,6.314V95.11a6.309,6.309,0,0,0,6.3,6.314H94.961a6.309,6.309,0,0,0,6.3-6.314V13.89a6.309,6.309,0,0,0-6.3-6.314Z" transform="translate(0)" stroke-width="0.3px"/>
          <path id="패스_6934" data-name="패스 6934" class="cls-3" d="M105.034,52.535a3.719,3.719,0,0,1-2.673-1.117L79.415,28.263c-.656-.609-1.16-.66-1.765,0l-9.128,9.191a6.473,6.473,0,0,1-8.926,0L36.65,14.35a1.2,1.2,0,0,0-1.765,0L6.492,42.887a3.714,3.714,0,0,1-5.346,0,3.827,3.827,0,0,1,0-5.383L29.539,8.967A8.733,8.733,0,0,1,42,8.967L64.084,31.208l8.22-8.277a8.545,8.545,0,0,1,6.2-2.64h0a8.744,8.744,0,0,1,6.253,2.59l22.946,23.155a3.776,3.776,0,0,1,0,5.383,3.568,3.568,0,0,1-2.673,1.117Z" transform="translate(0.166 25.622)" stroke-width="0.3px"/>
          <circle id="타원_250" data-name="타원 250" class="cls-3" cx="5.941" cy="5.941" r="5.941" transform="translate(66.161 20.696)" stroke-width="0.3px"/>
        </g>
      </g>
      <g id="사각형_3591" data-name="사각형 3591" class="cls-4" transform="translate(908.708 612.573) rotate(-45)" stroke="#fff" stroke-width="3px">
        <rect class="cls-5" width="155.566" height="14" rx="7" stroke="none"/>
        <rect class="cls-6" x="1.5" y="1.5" width="152.566" height="11" rx="5.5" fill="none"/>
      </g>
    </g>
  </g>
</svg>
