<svg xmlns="http://www.w3.org/2000/svg" width="19.188" height="19.188" viewBox="0 0 19.188 19.188" className="icon_link" fill="#07b419">
  <g id="그룹_10234" data-name="그룹 10234" transform="translate(-734 -428.812)">
    <g id="그룹_10235" data-name="그룹 10235">
      <path id="패스_7156" data-name="패스 7156" d="M14.191,11.654a1,1,0,0,1-.708-1.707l2.828-2.829a3,3,0,0,0-4.243-4.242L9.241,5.7A1,1,0,0,1,7.827,4.29l2.828-2.828a5,5,0,0,1,7.071,7.07L14.9,11.361a1,1,0,0,1-.707.293" transform="translate(734 428.813)"/>
      <path id="패스_7157" data-name="패스 7157" d="M5,19.187a5,5,0,0,1-3.536-8.532L4.29,7.826A1,1,0,0,1,5.7,9.24L2.876,12.069a3,3,0,0,0,4.243,4.242l2.828-2.828A1,1,0,1,1,11.361,14.9L8.533,17.725A4.981,4.981,0,0,1,5,19.187" transform="translate(734 428.813)"/>
      <path id="패스_7158" data-name="패스 7158" d="M7.826,12.361a1,1,0,0,1-.707-1.707l3.535-3.536a1,1,0,0,1,1.414,1.414L8.533,12.068a1,1,0,0,1-.707.293" transform="translate(734 428.813)"/>
    </g>
    <rect id="사각형_4515" data-name="사각형 4515" fill="none" width="19.188" height="19.187" transform="translate(734 428.813)"/>
  </g>
</svg>
