<svg xmlns="http://www.w3.org/2000/svg" xmlns:xlink="http://www.w3.org/1999/xlink" width="22" height="22" viewBox="0 0 22 22" className="icon_lnb_setting" fill="#8b949f" stroke="#8b949f">
  <g id="마스크_그룹_2" data-name="마스크 그룹 2"    stroke-width="0.3px">
    <path id="settings" class=" " d="M13.541,4a9.126,9.126,0,0,0-2.071.245.683.683,0,0,0-.524.591L10.8,6.158a1.365,1.365,0,0,1-1.908,1.1h0L7.678,6.724a.683.683,0,0,0-.774.158,9.091,9.091,0,0,0-2.079,3.584.683.683,0,0,0,.25.749l1.077.79a1.366,1.366,0,0,1,0,2.2L5.074,15a.683.683,0,0,0-.25.749A9.088,9.088,0,0,0,6.9,19.333a.683.683,0,0,0,.774.157l1.214-.535a1.367,1.367,0,0,1,1.909,1.1l.145,1.322a.683.683,0,0,0,.523.591,8.882,8.882,0,0,0,4.144,0,.683.683,0,0,0,.524-.591l.145-1.322a1.366,1.366,0,0,1,1.908-1.1l1.215.535a.683.683,0,0,0,.774-.157,9.094,9.094,0,0,0,2.079-3.585.683.683,0,0,0-.25-.749L20.93,14.21a1.366,1.366,0,0,1,0-2.2l1.077-.789a.683.683,0,0,0,.25-.749,9.094,9.094,0,0,0-2.079-3.585.683.683,0,0,0-.774-.157l-1.215.535a1.366,1.366,0,0,1-1.908-1.1l-.145-1.322a.683.683,0,0,0-.523-.591A9.1,9.1,0,0,0,13.541,4Zm0,1.366a7.44,7.44,0,0,1,1.3.155l.085.785a2.733,2.733,0,0,0,3.816,2.2l.722-.318a7.677,7.677,0,0,1,1.3,2.242l-.64.47a2.732,2.732,0,0,0,0,4.406l.64.47a7.678,7.678,0,0,1-1.3,2.242l-.722-.318a2.733,2.733,0,0,0-3.816,2.2l-.085.785a7.463,7.463,0,0,1-1.3.155,7.443,7.443,0,0,1-1.3-.155l-.085-.785a2.733,2.733,0,0,0-3.816-2.2l-.722.318a7.673,7.673,0,0,1-1.3-2.242l.64-.47a2.733,2.733,0,0,0,0-4.407l-.64-.47a7.674,7.674,0,0,1,1.3-2.242l.721.317a2.732,2.732,0,0,0,3.816-2.2l.085-.785A7.463,7.463,0,0,1,13.541,5.366Zm0,4.1a3.643,3.643,0,1,0,3.643,3.643A3.653,3.653,0,0,0,13.541,9.465Zm0,1.366a2.277,2.277,0,1,1-2.277,2.277A2.267,2.267,0,0,1,13.541,10.831Z" transform="translate(-2.795 -2.108)"/>
  </g>
</svg>
