<svg xmlns="http://www.w3.org/2000/svg" width="17.07" height="17.07" viewBox="0 0 17.07 17.07" className="icon_toast_checking" fill="#4caf50" stroke="#4caf50">
  <g id="Layer_2" data-name="Layer 2" transform="translate(0.16 0.16)">
    <g id="Layer_29" data-name="Layer 29" transform="translate(-0.01 -0.01)">
      <path id="패스_6891" data-name="패스 6891" d="M8.785,12.075a.623.623,0,0,1-.452-.188L6.387,9.942a.631.631,0,0,1,0-.9.64.64,0,0,1,.9,0l1.493,1.493,3.012-3a.631.631,0,0,1,.9,0,.64.64,0,0,1,0,.9L9.237,11.888a.631.631,0,0,1-.452.188Z" transform="translate(-1.151 -1.318)" stroke-width="0.3px"/>
      <path id="패스_6892" data-name="패스 6892" d="M8.383,16.76A8.385,8.385,0,1,1,16.76,8.383,8.385,8.385,0,0,1,8.383,16.76Zm0-15.519a7.142,7.142,0,1,0,7.134,7.142A7.142,7.142,0,0,0,8.383,1.241Z" transform="translate(0.01 0.01)" stroke-width="0.3px"/>
    </g>
  </g>
</svg>
