<svg id="구성_요소_85_233" data-name="구성 요소 85 – 233" xmlns="http://www.w3.org/2000/svg" width="25" height="25" viewBox="0 0 25 25" fill="#646f7c" className="icon_text_color">
  <rect id="사각형_3971" data-name="사각형 3971" width="25" height="25" rx="5" opacity="0"/>
  <path id="text-color" d="M14.547,5a.652.652,0,0,0-.582.4l-3.588,8.481a.652.652,0,1,0,1.2.508l.8-1.885h4.379l.8,1.885a.652.652,0,1,0,1.2-.508L15.167,5.4A.652.652,0,0,0,14.547,5Zm.019,2.326L16.2,11.2H12.928Zm-3.914,8.437a.652.652,0,1,0,0,1.3H18.48a.652.652,0,1,0,0-1.3Z" transform="translate(-2 0.932)"/>
</svg>
