<svg xmlns="http://www.w3.org/2000/svg" xmlns:xlink="http://www.w3.org/1999/xlink" width="24" height="24" viewBox="0 0 24 24" className="icon_file_upload_confirm_circle">
  <g id="마스크_그룹_8397" data-name="마스크 그룹 8397" transform="translate(-13510 4112)">
    <g id="Layer_2" data-name="Layer 2" transform="translate(13512.886 -4108.755)">
      <g id="Layer_29" data-name="Layer 29" transform="translate(0.375 0.015)">
        <circle id="타원_299" data-name="타원 299" cx="9" cy="9" r="9" transform="translate(-0.26 -0.26)" fill="#4caf50"/>
        <path id="패스_6891" data-name="패스 6891" d="M9.573,13.517a.812.812,0,0,1-.59-.245L6.445,10.735a.824.824,0,0,1,0-1.18.835.835,0,0,1,1.18,0L9.573,11.5,13.5,7.585a.824.824,0,0,1,1.18,0,.835.835,0,0,1,0,1.18l-4.519,4.507a.824.824,0,0,1-.59.245Z" transform="translate(-1.988 -1.83)" fill="#fff" stroke="#fff" stroke-width="0.3px" />
      </g>
    </g>
  </g>
</svg>
