<svg xmlns="http://www.w3.org/2000/svg" xmlns:xlink="http://www.w3.org/1999/xlink" width="38" height="38" viewBox="0 0 38 38" fill="#C3C6CC" stroke="#C3C6CC" className="icon_calendar">
  <g id="마스크_그룹_8410" data-name="마스크 그룹 8410"    stroke-width="0.3px" >
    <g id="Layer_53" data-name="Layer 53" transform="translate(8.34 9.58)">
      <path id="패스_7172" data-name="패스 7172" class=" " d="M18.57,18.84H2.75A2.75,2.75,0,0,1,0,16.09V4.4A2.75,2.75,0,0,1,2.75,1.65H18.57A2.76,2.76,0,0,1,21.32,4.4V16.09A2.75,2.75,0,0,1,18.57,18.84ZM2.75,3.15A1.25,1.25,0,0,0,1.5,4.4V16.09a1.25,1.25,0,0,0,1.25,1.25H18.57a1.25,1.25,0,0,0,1.25-1.25V4.4a1.25,1.25,0,0,0-1.25-1.25Z"/>
      <path id="패스_7173" data-name="패스 7173" class=" " d="M20.57,9.76H.75a.75.75,0,1,1,0-1.5H20.57a.75.75,0,0,1,0,1.5Z"/>
      <path id="패스_7174" data-name="패스 7174" class=" " d="M15.61,4.8a.75.75,0,0,1-.75-.75V.75a.75.75,0,1,1,1.5,0v3.3a.74.74,0,0,1-.75.75Z"/>
      <path id="패스_7175" data-name="패스 7175" class=" " d="M5.7,4.8A.75.75,0,0,1,5,4.05V.75a.75.75,0,1,1,1.5,0v3.3a.74.74,0,0,1-.8.75Z"/>
    </g>
  </g>
</svg>
