<svg xmlns="http://www.w3.org/2000/svg" width="24.904" height="28.152" viewBox="0 0 24.904 28.152" className="icon_file_add" fill="#e7e9ec">
  <path id="new-by-copy" d="M7.331,0A4.34,4.34,0,0,0,3,4.331v19.49a4.34,4.34,0,0,0,4.331,4.331h8.358a8.631,8.631,0,0,1-1.76-2.166h-6.6a2.164,2.164,0,0,1-2.166-2.166V4.331A2.164,2.164,0,0,1,7.331,2.166h7.884c.782.2.778,1.138.778,2.1V7.579a1.085,1.085,0,0,0,1.083,1.083h3.248c1.079,0,2.166,0,2.166,1.083v3.316a8.47,8.47,0,0,1,2.166.575V8.662c0-1.15-1.053-2.242-2.944-4.094-.262-.258-.546-.546-.812-.812s-.554-.516-.812-.778C18.235,1.087,17.144,0,15.993,0Zm.88,10.828a1.088,1.088,0,1,0,.2,2.166H19.242a1.083,1.083,0,1,0,0-2.166H8.211Zm.2,4.331a1.083,1.083,0,1,0,0,2.166h5.515a8.631,8.631,0,0,1,1.76-2.166Zm12.993,0a6.5,6.5,0,1,0,6.5,6.5A6.5,6.5,0,0,0,21.407,15.159Zm-1.083,2.166H22.49v3.248h3.248v2.166H22.49v3.248H20.325V22.738H17.076V20.573h3.248ZM8.414,19.49a1.083,1.083,0,0,0,0,2.166h4.331a8.7,8.7,0,0,1,.271-2.166Z" transform="translate(-3)"/>
</svg>
