<svg id="구성_요소_87_234" data-name="구성 요소 87 – 234" xmlns="http://www.w3.org/2000/svg" width="25" height="25" viewBox="0 0 25 25" className="icon_button_action_pannel_button" fill="#646f7c" stroke="#646f7c" stroke-width="0.4px">
  <rect id="사각형_4045" data-name="사각형 4045"   width="25" height="25" rx="5" fill="#f5f6f7" opacity="0" />
  <g id="Add" transform="translate(4.5 4.783)">
    <path id="패스_7143" data-name="패스 7143"    d="M12.479,1H3.3A2.3,2.3,0,0,0,1,3.3v9.184a2.3,2.3,0,0,0,2.3,2.3h9.184a2.3,2.3,0,0,0,2.3-2.3V3.3A2.3,2.3,0,0,0,12.479,1Zm1.378,11.479a1.379,1.379,0,0,1-1.378,1.378H3.3a1.379,1.379,0,0,1-1.378-1.378V3.3A1.379,1.379,0,0,1,3.3,1.918h9.184A1.379,1.379,0,0,1,13.857,3.3Z" transform="translate(0 0)"/>
    <path id="패스_7144" data-name="패스 7144"    d="M16.31,13.36H14.54V11.59a.59.59,0,1,0-1.18,0v1.77H11.59a.59.59,0,1,0,0,1.18h1.77v1.77a.59.59,0,1,0,1.18,0V14.54h1.77a.59.59,0,1,0,0-1.18Z" transform="translate(-6.063 -6.063)" fill="#646f7c" stroke="#646f7c" stroke-width="0.4px" />
  </g>
</svg>
