<svg id="구성_요소_88_234" data-name="구성 요소 88 – 234" xmlns="http://www.w3.org/2000/svg" width="25" height="25" viewBox="0 0 25 25" className="icon_chat_advise_keyword_pannel_button" fill="#646f7c" stroke="#646f7c" stroke-width="0.1px">
  <rect id="사각형_4044" data-name="사각형 4044"   width="25" height="25" rx="5" fill="#f5f6f7" opacity="0"/>
  <path id="create-new"    d="M14.272,1a1.488,1.488,0,0,0-1.055.449L7.692,7.071l-.824,3.461,3.461-.824.12-.111,5.5-5.414a1.5,1.5,0,0,0,.009-2.124l-.62-.625A1.481,1.481,0,0,0,14.272,1Zm.009,1.175a.313.313,0,0,1,.222.1l.62.62a.3.3,0,0,1,0,.444L9.737,8.635,8.46,8.94l.305-1.277,5.3-5.387A.3.3,0,0,1,14.281,2.179Zm-10.912,0A2.368,2.368,0,0,0,1,4.553v9.477A2.368,2.368,0,0,0,3.369,16.4h9.477a2.368,2.368,0,0,0,2.369-2.369V6.571L14.032,7.737v6.294a1.187,1.187,0,0,1-1.185,1.185H3.369a1.187,1.187,0,0,1-1.185-1.185V4.553A1.187,1.187,0,0,1,3.369,3.369h6.3l1.166-1.185Z" transform="translate(4.5 3.299)" fill="#646f7c" stroke="#646f7c" stroke-width="0.1px" />
</svg>
