<svg xmlns="http://www.w3.org/2000/svg" width="19.59" height="19.7" viewBox="0 0 19.59 19.7" className="icon_file_download" fill="#c3c6cc" stroke="#c3c6cc">
  <g id="Layer_2" data-name="Layer 2" transform="translate(0.15 0.15)">
    <g id="Layer_38" data-name="Layer 38">
      <path id="패스_6938" data-name="패스 6938" d="M16.54,19.4H2.75A2.75,2.75,0,0,1,0,16.65v-3.9a.75.75,0,0,1,1.5,0v3.9A1.26,1.26,0,0,0,2.75,17.9H16.54a1.26,1.26,0,0,0,1.25-1.25v-3.9a.75.75,0,0,1,1.5,0v3.9A2.76,2.76,0,0,1,16.54,19.4Z" stroke-width="0.3px"/>
      <path id="패스_6939" data-name="패스 6939" d="M9.64,13.5a.76.76,0,0,1-.75-.75V.75a.75.75,0,0,1,1.5,0v12a.75.75,0,0,1-.75.75Z" stroke-width="0.3px"/>
      <path id="패스_6940" data-name="패스 6940" d="M9.64,13.5a.77.77,0,0,1-.53-.22L6,10.15A.75.75,0,0,1,7.05,9.09l2.59,2.6,2.6-2.6a.75.75,0,0,1,1.06,1.06l-3.13,3.13A.75.75,0,0,1,9.64,13.5Z" stroke-width="0.3px"/>
    </g>
  </g>
</svg>
