<svg xmlns="http://www.w3.org/2000/svg" width="27" height="27" viewBox="0 0 27 27" className="icon_file_upload" fill="#646f7c" stroke="#646f7c" stroke-width="0.3px">
  <g id="그룹_9530" data-name="그룹 9530" transform="translate(0.001 0.033)">
    <rect id="사각형_3966" data-name="사각형 3966" width="27" height="27" rx="5" transform="translate(-0.001 26.967) rotate(-90)" opacity="0" />
    <g id="Layer_11" data-name="Layer 11" transform="translate(6.786 5.725)">
      <path id="패스_6919" data-name="패스 6919" d="M5.258,15.221A5.283,5.283,0,0,1,1.484,6.164l5.14-5.08a3.736,3.736,0,0,1,5.283,5.283l-5.049,5a2.181,2.181,0,0,1-3.019,0,2.121,2.121,0,0,1-.626-1.51,2.151,2.151,0,0,1,.626-1.51L7.666,4.526a.566.566,0,0,1,.8,0,.581.581,0,0,1,0,.808l-3.834,3.8a1.026,1.026,0,0,0-.294.755,1,1,0,0,0,.294.709,1.026,1.026,0,0,0,1.426,0l5.027-5.019a2.6,2.6,0,0,0,0-3.661,2.657,2.657,0,0,0-3.661,0L2.33,6.987a4.163,4.163,0,0,0,5.887,5.887L12.2,8.889a.566.566,0,1,1,.8.8l-3.97,3.985a5.283,5.283,0,0,1-3.774,1.547Z" transform="translate(0.102 0.01)" className="icon_emoji_pannel" fill="#646f7c" stroke="#646f7c" stroke-width="0.3px"/>
    </g>
  </g>
</svg>
