<svg id="구성_요소_81_233" data-name="구성 요소 81 – 233" xmlns="http://www.w3.org/2000/svg" width="25" height="25" viewBox="0 0 25 25" fill="#646f7c" className="icon_text_bold">
  <rect id="사각형_3971" data-name="사각형 3971" width="25" height="25" rx="5" opacity="0"/>
  <path id="패스_7099" data-name="패스 7099" d="M26.286,19.107A3.111,3.111,0,0,0,23.179,16H18.691a.691.691,0,0,0-.691.691v9.667a.691.691,0,0,0,.691.691h4.488a3.094,3.094,0,0,0,1.929-5.524A3.09,3.09,0,0,0,26.286,19.107Zm-1.381,4.834a1.728,1.728,0,0,1-1.726,1.726h-3.8V22.215h3.8a1.728,1.728,0,0,1,1.726,1.726Zm-5.524-3.107V17.381h3.8a1.726,1.726,0,1,1,0,3.453Z" transform="translate(-9.713 -9.094)"/>
</svg>
